<?xml version="1.0" standalone="no"?>
<!DOCTYPE svg PUBLIC "-//W3C//DTD SVG 20010904//EN"
 "http://www.w3.org/TR/2001/REC-SVG-20010904/DTD/svg10.dtd">
<svg version="1.0" xmlns="http://www.w3.org/2000/svg"
 width="32pt" height="32pt" viewBox="0 0 64.000000 64.000000"
 preserveAspectRatio="xMidYMid meet">

<g transform="translate(0.000000,64.000000) scale(0.100000,-0.100000)"
fill="#5D5FEF" stroke="none">
<path d="M72 613 c-36 -14 -42 -57 -42 -287 0 -125 4 -236 10 -251 18 -47 58
-55 288 -55 229 0 264 6 287 51 19 36 22 467 3 502 -24 45 -31 46 -288 46
-135 0 -251 -3 -258 -6z m258 -178 c10 -25 4 -55 -10 -55 -5 0 -3 -13 2 -28
13 -34 3 -81 -18 -89 -21 -8 -81 52 -89 88 -11 49 32 109 77 109 21 0 31 -6
38 -25z m89 -80 c23 -26 31 -46 31 -72 0 -65 -76 -119 -110 -79 -15 20 -9 61
10 61 8 0 14 -7 12 -17 -3 -20 14 -33 23 -17 4 6 -5 23 -19 38 -39 41 -33 121
10 121 7 0 26 -16 43 -35z"/>
<path d="M280 415 c0 -8 5 -15 10 -15 6 0 10 7 10 15 0 8 -4 15 -10 15 -5 0
-10 -7 -10 -15z"/>
<path d="M247 373 c-7 -12 29 -63 44 -63 15 0 10 18 -14 46 -14 16 -26 23 -30
17z"/>
<path d="M370 333 c0 -12 11 -35 25 -50 23 -27 24 -27 25 -6 0 12 -11 35 -25
50 -23 27 -24 27 -25 6z"/>
</g>
</svg>
