<?xml version="1.0" encoding="UTF-8"?>
<!DOCTYPE svg PUBLIC "-//W3C//DTD SVG 1.1//EN" "http://www.w3.org/Graphics/SVG/1.1/DTD/svg11.dtd">
<svg xmlns="http://www.w3.org/2000/svg" version="1.1" width="46px" height="46px" style="shape-rendering:geometricPrecision; text-rendering:geometricPrecision; image-rendering:optimizeQuality; fill-rule:evenodd; clip-rule:evenodd" xmlns:xlink="http://www.w3.org/1999/xlink">
<g><path style="opacity:1" fill="#8283ef" d="M -0.5,-0.5 C 1.16667,-0.5 2.83333,-0.5 4.5,-0.5C 3.16667,1.5 1.5,3.16667 -0.5,4.5C -0.5,2.83333 -0.5,1.16667 -0.5,-0.5 Z"/></g>
<g><path style="opacity:1" fill="#fcfcfe" d="M 4.5,-0.5 C 17.1667,-0.5 29.8333,-0.5 42.5,-0.5C 43.1667,0.833333 44.1667,1.83333 45.5,2.5C 45.5,15.8333 45.5,29.1667 45.5,42.5C 44.1667,43.1667 43.1667,44.1667 42.5,45.5C 29.8333,45.5 17.1667,45.5 4.5,45.5C 2.80363,43.4752 1.13696,41.4752 -0.5,39.5C -0.5,27.8333 -0.5,16.1667 -0.5,4.5C 1.5,3.16667 3.16667,1.5 4.5,-0.5 Z"/></g>
<g><path style="opacity:1" fill="#7c7cee" d="M 42.5,-0.5 C 43.5,-0.5 44.5,-0.5 45.5,-0.5C 45.5,0.5 45.5,1.5 45.5,2.5C 44.1667,1.83333 43.1667,0.833333 42.5,-0.5 Z"/></g>
<g><path style="opacity:1" fill="#6a6aec" d="M 17.5,10.5 C 20.2605,9.91465 21.9272,10.9147 22.5,13.5C 22.0748,15.3805 21.0748,16.8805 19.5,18C 21.9592,21.2622 21.9592,24.4289 19.5,27.5C 12.4444,22.4595 11.7777,16.7928 17.5,10.5 Z"/></g>
<g><path style="opacity:1" fill="#6c6ced" d="M 25.5,17.5 C 32.0893,19.3333 34.5893,23.6666 33,30.5C 31.2894,33.5797 28.7894,34.7464 25.5,34C 23.9799,31.0839 24.6466,28.7505 27.5,27C 25.7746,24.1143 25.1079,20.9477 25.5,17.5 Z"/></g>
<g><path style="opacity:1" fill="#6e6eed" d="M -0.5,39.5 C 1.13696,41.4752 2.80363,43.4752 4.5,45.5C 2.83333,45.5 1.16667,45.5 -0.5,45.5C -0.5,43.5 -0.5,41.5 -0.5,39.5 Z"/></g>
<g><path style="opacity:1" fill="#7f80ef" d="M 45.5,42.5 C 45.5,43.5 45.5,44.5 45.5,45.5C 44.5,45.5 43.5,45.5 42.5,45.5C 43.1667,44.1667 44.1667,43.1667 45.5,42.5 Z"/></g>
</svg>
