<svg xmlns="http://www.w3.org/2000/svg" version="1.1" xmlns:xlink="http://www.w3.org/1999/xlink" xmlns:svgjs="http://svgjs.dev/svgjs" width="200" height="200" preserveAspectRatio="none" viewBox="0 0 200 200"><g mask="url(&quot;#SvgjsMask1099&quot;)" fill="none"><rect width="200" height="200" x="0" y="0" fill="rgba(94, 96, 240, 1)"></rect><path d="M0,73.821C13.707,73.329,24.565,63.514,36.655,57.036C49.915,49.931,67.445,47.318,74.378,33.967C81.332,20.576,75.131,4.377,71.621,-10.298C68.388,-23.813,63.976,-37.049,54.877,-47.551C45.778,-58.053,33.31,-64.322,20.387,-69.431C6.372,-74.972,-8.215,-81.246,-23.004,-78.344C-38.346,-75.333,-53.498,-66.74,-61.565,-53.347C-69.317,-40.476,-65.559,-24.282,-64.599,-9.288C-63.816,2.939,-60.849,14.348,-56.499,25.802C-51.853,38.035,-48.357,51.258,-38.387,59.732C-27.786,68.742,-13.903,74.32,0,73.821" fill="#4f51ef"></path><path d="M200 278.829C214.87 279.031 228.695 272.154 241.103 263.957 253.393 255.838 266.859 246.48 270.553 232.221 274.153 218.323 264.652 204.936 259.901 191.388 256.074 180.475 252.043 170.12 245.44299999999998 160.623 238.144 150.121 230.75900000000001 139.547 219.569 133.35500000000002 206.63400000000001 126.197 191.883 120.098 177.378 122.956 162.464 125.894 147.744 135.238 140.961 148.84199999999998 134.43 161.94 141.995 177.213 143.047 191.811 143.85 202.953 143.877 213.593 146.413 224.472 149.548 237.91899999999998 149.913 253.019 159.607 262.852 169.982 273.376 185.223 278.629 200 278.829" fill="#6d6ff1"></path></g><defs><mask id="SvgjsMask1099"><rect width="200" height="200" fill="#ffffff"></rect></mask></defs></svg>